<svg width="32" height="32" viewBox="0 0 32 32" fill="none" xmlns="http://www.w3.org/2000/svg">
  <path d="M16 4C9.37 4 4 9.37 4 16C4 21.31 7.44 25.8 12.2 27.39C12.8 27.5 13 27.13 13 26.81C13 26.52 12.99 25.56 12.99 24.29C9.73 24.99 9.04 22.91 9.04 22.91C8.5 21.53 7.72 21.16 7.72 21.16C6.64 20.42 7.8 20.44 7.8 20.44C9 20.52 9.63 21.68 9.63 21.68C10.69 23.5 12.41 22.97 13.09 22.66C13.2 21.89 13.5 21.37 13.84 21.08C11.24 20.79 8.5 19.78 8.5 15.25C8.5 13.96 8.96 12.91 9.71 12.09C9.59 11.8 9.18 10.61 9.82 9C9.82 9 10.83 8.68 12.98 10.13C13.94 9.86 14.97 9.72 16 9.72C17.03 9.72 18.06 9.86 19.02 10.13C21.17 8.68 22.18 9 22.18 9C22.82 10.61 22.41 11.8 22.29 12.09C23.04 12.91 23.5 13.96 23.5 15.25C23.5 19.79 20.75 20.79 18.14 21.08C18.57 21.45 18.95 22.17 18.95 23.28C18.95 24.87 18.94 26.34 18.94 26.81C18.94 27.13 19.14 27.51 19.75 27.39C24.51 25.8 28 21.31 28 16C28 9.37 22.63 4 16 4Z" fill="#ABB2BF"></path>
</svg>