<svg width="32" height="32" viewBox="0 0 32 32" fill="none" xmlns="http://www.w3.org/2000/svg">
  <path d="M16.02 5C10.03 5 5.17 9.76 5.17 15.63C5.17 17.5 5.66 19.33 6.58 20.94L5 26L10.25 24.47C11.78 25.28 13.5 25.7 15.99 25.7H16.02C22.01 25.7 26.87 20.94 26.87 15.07C26.87 9.2 22.01 5 16.02 5ZM21.97 19.35C21.72 20.03 20.49 20.64 19.78 20.74C19.17 20.83 18.4 20.87 15.74 19.82C12.34 18.48 10.14 15.18 9.97 14.96C9.81 14.73 8.62 13.17 8.62 11.56C8.62 9.95 9.45 9.17 9.75 8.86C10.05 8.56 10.41 8.48 10.63 8.48C10.85 8.48 11.07 8.48 11.26 8.49C11.44 8.5 11.69 8.42 11.93 8.98C12.18 9.57 12.76 11 12.84 11.16C12.92 11.32 12.97 11.5 12.86 11.68C12.75 11.86 12.7 11.97 12.54 12.15C12.38 12.33 12.21 12.55 12.07 12.71C11.91 12.89 11.74 13.08 11.93 13.41C12.12 13.73 12.78 14.79 13.75 15.66C15 16.77 16.05 17.12 16.41 17.28C16.74 17.42 16.93 17.4 17.12 17.18C17.31 16.96 17.94 16.25 18.16 15.92C18.38 15.59 18.6 15.65 18.88 15.76C19.15 15.87 20.62 16.58 20.91 16.72C21.2 16.87 21.39 16.94 21.47 17.08C21.56 17.23 21.56 17.89 21.31 18.57L21.97 19.35Z" fill="#ABB2BF"></path>
</svg>